<svg width="44" height="44" viewBox="0 0 44 44" fill="none" xmlns="http://www.w3.org/2000/svg">
<path d="M11.2383 44H0L2.93359 40H14.1729L11.2383 44ZM17.1074 36H5.86816L8.80273 32H20.042L17.1074 36ZM22.9756 28H11.7363L14.6709 24H25.9102L22.9756 28ZM28.8447 20H17.6055L20.54 16H31.7793L28.8447 20ZM34.7139 12H23.4746L26.4092 8H37.6484L34.7139 12ZM40.583 4H29.3438L32.2783 0H43.5176L40.583 4Z" fill="#66FF99"/>
<path d="M42.3877 44H30.9336L28.1143 40H39.5693L42.3877 44ZM36.75 36H25.2949L22.4756 32H33.9307L36.75 36ZM31.1113 28H22.9756L25.9102 24H28.292L31.1113 28ZM17.6055 20H14.0176L11.1982 16H20.54L17.6055 20ZM19.835 12H8.37988L5.56055 8H17.0156L19.835 12ZM14.1963 4H2.74121L0.264648 0.486328H11.7197L14.1963 4Z" fill="#66FF99"/>
</svg>
