<svg width="64" height="64" viewBox="0 0 64 64" fill="none" xmlns="http://www.w3.org/2000/svg">
  <!-- Linex Logo - AI-first loyalty program framework -->
  <!-- Organic starburst with interconnected nodes suggesting loyalty connections + AI network -->
  
  <defs>
    <linearGradient id="linexGradient" x1="0%" y1="0%" x2="100%" y2="100%">
      <stop offset="0%" style="stop-color:#6366F1"/>
      <stop offset="50%" style="stop-color:#8B5CF6"/>
      <stop offset="100%" style="stop-color:#A855F7"/>
    </linearGradient>
  </defs>
  
  <!-- Center node -->
  <circle cx="32" cy="32" r="5" fill="url(#linexGradient)"/>
  
  <!-- Organic rays with varying thickness - like loyalty connections -->
  <!-- Top -->
  <path d="M32 27 Q33 20 32 10 Q31 20 32 27" fill="url(#linexGradient)"/>
  <!-- Top-right -->
  <path d="M35 29 Q40 24 46 16 Q38 25 35 29" fill="url(#linexGradient)"/>
  <!-- Right -->
  <path d="M37 32 Q44 31 54 32 Q44 33 37 32" fill="url(#linexGradient)"/>
  <!-- Bottom-right -->
  <path d="M35 35 Q40 40 46 48 Q38 39 35 35" fill="url(#linexGradient)"/>
  <!-- Bottom -->
  <path d="M32 37 Q33 44 32 54 Q31 44 32 37" fill="url(#linexGradient)"/>
  <!-- Bottom-left -->
  <path d="M29 35 Q24 40 18 48 Q26 39 29 35" fill="url(#linexGradient)"/>
  <!-- Left -->
  <path d="M27 32 Q20 31 10 32 Q20 33 27 32" fill="url(#linexGradient)"/>
  <!-- Top-left -->
  <path d="M29 29 Q24 24 18 16 Q26 25 29 29" fill="url(#linexGradient)"/>
  
  <!-- Additional shorter rays for fullness -->
  <path d="M33.5 28 Q36 22 38 14 Q34 23 33.5 28" fill="url(#linexGradient)" opacity="0.7"/>
  <path d="M36 30 Q42 27 50 22 Q40 28 36 30" fill="url(#linexGradient)" opacity="0.7"/>
  <path d="M36 34 Q42 37 50 42 Q40 36 36 34" fill="url(#linexGradient)" opacity="0.7"/>
  <path d="M33.5 36 Q36 42 38 50 Q34 41 33.5 36" fill="url(#linexGradient)" opacity="0.7"/>
  <path d="M30.5 36 Q28 42 26 50 Q30 41 30.5 36" fill="url(#linexGradient)" opacity="0.7"/>
  <path d="M28 34 Q22 37 14 42 Q24 36 28 34" fill="url(#linexGradient)" opacity="0.7"/>
  <path d="M28 30 Q22 27 14 22 Q24 28 28 30" fill="url(#linexGradient)" opacity="0.7"/>
  <path d="M30.5 28 Q28 22 26 14 Q30 23 30.5 28" fill="url(#linexGradient)" opacity="0.7"/>
  
  <!-- Small connection dots at ray tips - representing loyalty network nodes -->
  <circle cx="32" cy="10" r="2" fill="url(#linexGradient)"/>
  <circle cx="46" cy="16" r="1.5" fill="url(#linexGradient)"/>
  <circle cx="54" cy="32" r="2" fill="url(#linexGradient)"/>
  <circle cx="46" cy="48" r="1.5" fill="url(#linexGradient)"/>
  <circle cx="32" cy="54" r="2" fill="url(#linexGradient)"/>
  <circle cx="18" cy="48" r="1.5" fill="url(#linexGradient)"/>
  <circle cx="10" cy="32" r="2" fill="url(#linexGradient)"/>
  <circle cx="18" cy="16" r="1.5" fill="url(#linexGradient)"/>
</svg>
